<?xml version="1.0" encoding="utf-8"?>
<!-- Generator: Adobe Illustrator 19.0.0, SVG Export Plug-In . SVG Version: 6.00 Build 0)  -->
<svg version="1.1" id="Layer_3" xmlns="http://www.w3.org/2000/svg" xmlns:xlink="http://www.w3.org/1999/xlink" x="0px" y="0px"
	 width="128px" height="128px" viewBox="0 0 128 128" style="enable-background:new 0 0 128 128;" xml:space="preserve">
<style type="text/css">
	.st0{fill:#004586;}
</style>
<g id="XMLID_118_">
	<path id="XMLID_124_" class="st0" d="M40.5937,93.9069C33.3592,92.6727,26.8595,88.747,22.4,82.9182
		c-1.8202,3.7014-2.8224,7.7512-2.9384,11.8742c-0.483,16.1006,13.0013,28.9811,29.1019,28.9811s29.1824-12.7195,28.9811-29.1824
		C77.5849,94.5912,47.7585,94.8327,40.5937,93.9069L40.5937,93.9069z"/>
	<path id="XMLID_123_" class="st0" d="M14.6717,96.5233C14.2466,78.1882,28.7655,62.98,47.1006,62.5549
		c0.4473-0.0104,0.8948-0.0117,1.3422-0.004H60.961c9.2034,0,16.6642-7.4608,16.6642-16.6641c0,0,0,0,0,0
		c0-9.2034-7.4608-16.6642-16.6642-16.6642l0,0h-7.2453c-22.875-0.0222-41.4369,18.5036-41.4591,41.3786c0,0,0,0,0,0v17.2679
		c0,3.2201,1.2075,10.0629,3.0994,14.8931c0,0.0222,0.018,0.0403,0.0403,0.0403c0.0222,0,0.0403-0.018,0.0403-0.0403
		c-0.4817-2.0465-0.7515-4.1372-0.805-6.239L14.6717,96.5233z"/>
	<path id="XMLID_122_" class="st0" d="M99.1195,0c-9.2256,0-16.7044,7.4788-16.7044,16.7044v78.088
		c-0.0035,15.9696-11.1546,29.77-26.7673,33.127c-0.0222,0-0.0402,0.018-0.0402,0.0403S55.6256,128,55.6478,128h17.5899
		c22.8629,0,42.5057-18.5157,42.5057-41.4189V16.7044C115.7435,7.5102,108.3136,0.0443,99.1195,0z"/>
</g>
</svg>
