<?xml version="1.0" encoding="utf-8"?>
<!-- Generator: Adobe Illustrator 19.0.0, SVG Export Plug-In . SVG Version: 6.00 Build 0)  -->
<svg version="1.1" id="Layer_3" xmlns="http://www.w3.org/2000/svg" xmlns:xlink="http://www.w3.org/1999/xlink" x="0px" y="0px"
	 width="525.0263px" height="179.122px" viewBox="0 0 525.0263 179.122" style="enable-background:new 0 0 525.0263 179.122;"
	 xml:space="preserve">
<style type="text/css">
	.st0{fill:#4A4F54;}
	.st1{fill:#E82C2A;}
</style>
<g id="XMLID_17_">
	<path id="XMLID_142_" class="st0" d="M19.4436,116.9038l15.554-2.592c3.8885-0.6483,4.5368-2.592,4.5368-4.5368
		c0-4.5368-3.2402-8.4253-11.0173-8.4253s-11.6655,4.5368-12.3138,10.37l-15.554-3.2402
		c1.2955-10.3701,10.369-21.3884,27.8678-21.3884c20.0908,0,27.8678,11.6655,27.8678,24.6276v31.7574
		c0,3.2402,0.6483,7.777,0.6483,10.3701h-15.554c-0.6483-1.9448-0.6483-5.185-0.6483-7.777
		c-3.2402,5.185-9.7218,9.7218-18.7953,9.7218C8.4253,155.791,0,146.7175,0,136.3484
		C0.001,124.6808,8.4263,118.2003,19.4436,116.9038 M40.1827,127.9221v-2.592l-14.2586,1.9448
		c-4.5368,0.6483-7.777,3.2402-7.777,8.4253c0,3.8885,2.592,7.777,8.4253,7.777C33.0539,142.8279,40.1827,138.9394,40.1827,127.9221
		"/>
	<path id="XMLID_141_" class="st0" d="M82.3101,121.4406L59.6262,89.036h20.7391c1.9448,3.2402,10.37,15.554,12.962,19.4425
		l12.962-19.4425h19.4425l-22.6838,31.7574l23.3311,33.0528h-20.0908L92.678,133.7554c-2.592,3.2402-11.0173,16.2023-12.962,20.0908
		H60.2745L82.3101,121.4406z"/>
	<path id="XMLID_140_" class="st0" d="M185.3571,89.036l14.2586,41.4781l11.6655-41.4781h17.4988l-20.0908,64.8102h-17.4988
		l-14.9058-44.0712l-14.9058,44.0712h-17.4988L123.1399,89.036h18.1471l12.3138,41.4781l13.6103-41.4781H185.3571z"/>
	<path id="XMLID_137_" class="st0" d="M246.2789,116.9038l15.554-2.592c3.8885-0.6483,4.5368-2.592,4.5368-4.5368
		c0-4.5368-3.2403-8.4253-11.0173-8.4253c-7.777,0-11.6655,4.5368-12.3138,10.37l-15.554-3.2402
		c1.2965-10.37,10.3701-21.3873,27.8678-21.3873c20.0908,0,27.8678,11.6655,27.8678,24.6276v31.7574
		c0,3.2402,0.6483,7.777,0.6483,10.37h-16.2023c-0.6483-1.9448-0.6483-5.185-0.6483-7.777
		c-3.2403,5.185-9.7218,9.7218-18.7953,9.7218c-13.6103,0-22.0356-9.0735-22.0356-19.4425
		C226.8353,124.6808,235.2605,118.2003,246.2789,116.9038 M267.0179,127.9221v-2.592l-14.2586,1.9448
		c-4.5368,0.6483-7.777,3.2402-7.777,8.4253c0,3.8885,2.592,7.777,8.4253,7.777
		C259.8892,142.8279,267.0179,138.9394,267.0179,127.9221"/>
	<path id="XMLID_136_" class="st0" d="M294.8857,179.122l14.9058-33.7011L282.5709,89.036h19.4426l17.4988,38.2379l15.554-38.2379
		h18.7953l-40.8299,90.086H294.8857z"/>
	<g id="XMLID_134_" transform="translate(56.41 .062)">
		<path id="XMLID_135_" class="st1" d="M468.6163,65.3965V43.3609l-33.0528-16.2023v33.0528L309.1843-0.062v22.0356
			l144.5262,68.6987V58.2667L468.6163,65.3965z"/>
	</g>
	<path id="XMLID_133_" class="st1" d="M397.9338,81.259v22.0356l23.3311,11.0173l-37.5896,39.5344h24.6276l44.0712-46.6631
		L397.9338,81.259z"/>
	<path id="XMLID_132_" class="st1" d="M510.0555,101.998L383.028,41.0764v22.0356l101.1033,48.6079L510.0555,101.998z"/>
</g>
</svg>
