<?xml version="1.0" encoding="utf-8"?>
<!-- Generator: Adobe Illustrator 19.0.0, SVG Export Plug-In . SVG Version: 6.00 Build 0)  -->
<svg version="1.1" id="Layer_2" xmlns="http://www.w3.org/2000/svg" xmlns:xlink="http://www.w3.org/1999/xlink" x="0px" y="0px"
	 width="383.0928px" height="136.7162px" viewBox="0 0 383.0928 136.7162" style="enable-background:new 0 0 383.0928 136.7162;"
	 xml:space="preserve">
<style type="text/css">
	.st0{fill:#004586;}
</style>
<path id="XMLID_48_" class="st0" d="M300.022,104.6802c-2.687,0.0018-4.8667-2.1753-4.8685-4.8623v-0.0026V4.8892
	c0.0705-2.6905,2.3092-4.8147,4.9997-4.7434c1.2242,0.0326,2.3911,0.524,3.2691,1.3783c0.9089,0.8895,1.4364,2.0934,1.4699,3.366
	v94.9252c0.0027,2.6843-2.17,4.8623-4.8544,4.8649C300.0335,104.6802,300.0273,104.6802,300.022,104.6802z M107.8379,105.3583
	c-19.775,0-35.8053-16.0303-35.8053-35.8053s16.0303-35.8053,35.8053-35.8053s35.8053,16.0303,35.8053,35.8053
	S127.6129,105.3583,107.8379,105.3583z M107.8379,43.4863C93.443,43.4872,81.7756,55.1581,81.7765,69.553
	c0.0018,14.3949,11.6718,26.0631,26.0667,26.0614c14.394-0.0018,26.0614-11.67,26.0614-26.064
	C133.8895,55.1608,122.2274,43.4995,107.8379,43.4863z M383.0332,63.7625c-3.1934-19.5179-21.6051-32.752-41.1229-29.5586
	c-19.5187,3.1934-32.7529,21.6051-29.5595,41.1229c2.8332,17.317,17.797,30.0306,35.3448,30.0289
	c12.3895-0.0405,24.1573-5.4339,32.2755-14.793c1.7217-2.0635,1.4443-5.1309-0.6183-6.8526
	c-2.0009-1.6689-4.9609-1.4664-6.7153,0.4606c-6.2661,7.1776-15.5918,11.4657-24.942,11.4657
	c-13.8841-0.0167-25.3251-10.8985-26.0367-24.7641h56.4654c2.6896-0.0044,4.8667-2.1894,4.8623-4.879
	c0-0.1295-0.0053-0.2589-0.0159-0.3884C383.1098,64.9998,383.1292,64.3728,383.0332,63.7625z M347.6956,43.4863
	c11.1618-0.044,21.1004,7.0578,24.6743,17.6332h-49.3371C326.6523,50.5838,336.5557,43.5039,347.6956,43.4863z M182.6093,33.9229
	c-8.4828,0-16.2487,3.3845-22.137,8.9593v-4.4607c-0.0634-2.6879-2.2942-4.8147-4.9821-4.7513
	c-2.598,0.0616-4.6897,2.1533-4.7513,4.7513v20.4073c-0.015,0.0396-0.0273,0.0793-0.0387,0.1207v21.1929l0.0387,0.1207v51.5811
	c-0.0026,2.6888,2.1753,4.8702,4.8641,4.872c2.6887,0.0026,4.8702-2.1753,4.872-4.864c0,0,0-0.0062,0-0.0088V96.2705
	c5.9632,5.6989,13.8885,8.8888,22.137,8.9099c18.4267,0,33.4196-15.9801,33.4196-35.6274S201.036,33.9229,182.6093,33.9229z
	 M182.6093,95.7949c-8.9399,0-17.0916-5.3713-21.2731-14.0127c-1.8389-3.8143-2.7839-7.9975-2.7636-12.2319
	c0-14.4697,10.7814-26.2419,24.034-26.2419c13.25,0,24.034,11.7722,24.034,26.2419
	C206.6407,84.0227,195.8672,95.7949,182.6093,95.7949z M65.334,58.6976c-0.0079-0.0405-0.0211-0.0801-0.0387-0.118V4.7553
	c-0.0634-2.6896-2.296-4.8174-4.9847-4.754c-2.5998,0.0616-4.6923,2.1542-4.754,4.754v37.8168
	c-5.9632-5.699-13.8885-8.8888-22.137-8.9099C14.9955,33.6622,0,49.6432,0,69.2765c0,19.6359,14.9955,35.6442,33.4222,35.6442
	c8.4828,0,16.2487-3.3845,22.137-8.9593v4.4607c0.0898,2.6887,2.3426,4.7954,5.0314,4.7046
	c2.5619-0.0863,4.6192-2.1427,4.7046-4.7046V80.0165c0.0106-0.0396,0.0238-0.0793,0.0387-0.118V58.7003V58.6976z M33.4222,95.5351
	c-13.2526,0-24.0367-11.7695-24.0367-26.2419s10.7867-26.2446,24.0367-26.2446c8.9399,0,17.0915,5.3713,21.2722,14.0127
	c1.8371,3.8099,2.7821,7.9879,2.7636,12.2178C57.4589,83.7656,46.6775,95.5351,33.4222,95.5351z M254.7405,33.9229
	c-8.4828,0-16.2514,3.3845-22.137,8.9593v-4.4607c0.0026-2.6887-2.1753-4.8702-4.864-4.872
	c-2.6888-0.0026-4.8702,2.1753-4.872,4.8641c0,0.0026,0,0.0062,0,0.0062v20.4091c-0.0141,0.0396-0.0255,0.0793-0.0352,0.1207
	v21.1929c0.0079,0.0414,0.022,0.0819,0.0352,0.1207v51.5811c-0.0026,2.6888,2.1753,4.8702,4.864,4.872
	c2.6888,0.0026,4.8702-2.1753,4.872-4.864c0,0,0-0.0062,0-0.0088V96.2705c5.9632,5.6989,13.8885,8.8888,22.137,8.9099
	c18.4267,0,33.4248-15.9801,33.4248-35.6274S273.1865,33.9229,254.7405,33.9229z M254.7405,95.7949
	c-8.9425,0-17.0942-5.3713-21.2722-14.0127c-1.8398-3.8143-2.7856-7.9975-2.7663-12.2319c0-14.4697,10.7841-26.2419,24.034-26.2419
	c13.25,0,24.0367,11.7722,24.0367,26.2419C278.7719,84.0227,267.9957,95.7949,254.7405,95.7949z"/>
</svg>
