<?xml version="1.0" encoding="utf-8"?>
<!-- Generator: Adobe Illustrator 19.0.0, SVG Export Plug-In . SVG Version: 6.00 Build 0)  -->
<svg version="1.1" id="Layer_1" xmlns="http://www.w3.org/2000/svg" xmlns:xlink="http://www.w3.org/1999/xlink" x="0px" y="0px"
	 width="955.0001px" height="189.2257px" viewBox="0 0 955.0001 189.2257" style="enable-background:new 0 0 955.0001 189.2257;"
	 xml:space="preserve">
<style type="text/css">
	.st0{fill:#808285;}
	.st1{fill:#002E63;}
</style>
<g id="XMLID_1_">
	<path id="XMLID_6_" class="st0" d="M62.7191,155.0885h-7.625v-13.0354h-0.246c-3.6891,8.8542-14.2653,15.0033-24.3495,15.0033
		c-20.6603-0.0007-30.4985-16.7253-30.4985-36.1557c0-19.1844,9.8382-35.9097,30.4985-35.9097
		c10.0842,0,20.1684,5.1651,23.6115,15.0033h0.246l0-39.1069h8.3623l0,94.2009L62.7191,155.0885L62.7191,155.0885z
		 M30.4986,150.1694c17.7085,0,23.8575-15.0033,23.8575-29.0226c0-14.0193-6.149-29.0226-23.8575-29.0226
		c-15.7412,0-22.3823,15.0033-22.3823,29.0226C8.3623,135.1661,14.7573,150.1694,30.4986,150.1694z M78.7056,60.8868h8.3623v13.2814
		l-8.3623,0V60.8868z M78.7056,86.9583h8.3623l0,68.1302h-8.3623L78.7056,86.9583z M160.609,149.4314
		c0,20.4144-7.8703,32.9578-30.2526,32.9578c-13.5273,0-27.0554-6.1491-28.2846-20.6604l8.3623,0
		c1.9679,10.0842,10.5762,13.5273,19.9224,13.5273c15.2493,0,21.8903-9.1002,21.8903-25.8255v-9.3455h-0.246
		c-3.9351,8.3623-11.8061,14.0193-21.6443,14.0193c-21.6443,0-30.7445-15.4953-30.7445-34.9257
		c0-18.6925,11.0681-34.4337,30.7445-34.4337c9.8382,0,18.4464,6.1491,21.6443,13.7734h0.246V86.7123l8.3622,0L160.609,149.4314
		L160.609,149.4314z M152.2467,120.1628c0-13.2814-6.149-28.2847-21.8903-28.2847c-15.7413,0-22.3823,14.2653-22.3823,28.2847
		c0,13.7734,7.133,27.0554,22.3823,27.0554C144.8678,147.2175,152.2467,134.1821,152.2467,120.1628z M176.5963,60.8868l8.3623,0
		v13.2814h-8.3622L176.5963,60.8868L176.5963,60.8868z M176.5963,86.9583l8.3623,0v68.1302h-8.3623V86.9583L176.5963,86.9583z
		 M214.2271,86.9583l13.7733,0v6.887h-13.7733l0,45.9939c0,5.4111,0.738,8.6082,6.641,9.1002c2.4599,0,4.6731,0,7.133-0.492v7.133
		c-2.4599,0-4.9191,0.246-7.379,0.246c-11.0681,0-15.0033-3.6891-14.7573-15.2493V94.0913l-11.8061,0v-6.887h11.8061V66.7899h8.3623
		V86.9583L214.2271,86.9583z M239.3146,107.8647c0.738-15.9873,12.0521-22.8736,27.5474-22.8736
		c12.0521,0,25.0875,3.6891,25.0875,21.8903v36.1556c0,3.1972,1.7219,4.9191,4.9191,4.9191c0.9839,0,1.9679-0.246,2.7052-0.492
		v7.133c-1.7219,0.492-3.1972,0.492-5.4111,0.492c-8.3622,0-9.8382-4.6731-9.8382-11.8062h-0.246
		c-5.9031,8.8543-11.8061,13.7734-24.8415,13.7734c-12.5441,0-22.8736-6.1491-22.8736-19.9224
		c0-19.1844,18.6924-19.6764,36.6476-21.8903c6.887-0.738,10.5762-1.7219,10.5762-9.3462c0-11.3141-8.1163-14.0193-17.9545-14.0193
		c-10.3302,0-17.9545,4.6731-18.2004,15.7413L239.3146,107.8647z M283.5871,117.9489h-0.246
		c-0.984,1.9679-4.6731,2.7052-6.887,2.9512c-14.2653,2.4592-31.7285,2.4592-31.7285,15.7412
		c0,8.3623,7.379,13.5274,15.2493,13.5274c12.7894,0,23.8575-8.1163,23.8575-21.3983v-10.8222h-0.2453L283.5871,117.9489z
		 M308.6746,60.8869l8.3622,0v94.201l-8.3623,0L308.6746,60.8869z"/>
	<polygon id="XMLID_127_" class="st1" points="357.3736,124.836 357.3736,124.836 357.3736,124.8359 	"/>
	<path id="XMLID_5_" class="st1" d="M375.328,84.7444c-20.4136,0-32.9577,16.7252-32.9577,36.1556
		c0,20.9064,12.0514,35.9097,33.4497,35.9097c15.0033,0,27.7933-8.1163,30.9905-23.1196h-14.2653
		c-2.7059,7.625-8.117,11.3141-16.7252,11.3141c-12.5434,0-18.4464-9.5922-18.4464-20.1684l0,0v0v0l50.1749-0.2467
		C410.0077,104.1749,396.9723,84.7444,375.328,84.7444z M357.3736,114.9977c0.4913-10.3302,7.6243-18.2005,17.9545-18.2005
		c10.3301,0,16.7252,8.6082,17.2172,18.2005L357.3736,114.9977z"/>
	<polygon id="XMLID_124_" class="st1" points="419.3546,60.8869 434.3579,60.8869 434.3579,155.0878 419.3546,155.0878 
		419.3546,60.8869 	"/>
	<polygon id="XMLID_117_" class="st1" points="462.6425,124.836 462.6425,124.836 462.6425,124.8359 	"/>
	<path id="XMLID_4_" class="st1" d="M480.597,84.7445c-20.4136,0-32.9577,16.7252-32.9577,36.1556
		c0,20.9064,12.0514,35.9097,33.4497,35.9097c15.0033,0,27.5474-8.1163,30.9905-23.1196h-14.2653
		c-2.7059,7.625-8.117,11.3141-16.7252,11.3141c-12.5434,0-18.4464-9.5922-18.4464-20.1684h-0.0001l0.0001,0v0l50.1749-0.2467
		C515.2766,104.1749,502.2413,84.7445,480.597,84.7445z M462.6425,114.9977c0.4913-10.3302,7.6243-18.2005,17.9545-18.2005
		c10.3301,0,16.7252,8.6082,17.2172,18.2005L462.6425,114.9977z"/>
	<path id="XMLID_57_" class="st1" d="M524.1316,86.9583h14.2653v9.3462h0.492c4.4271-6.641,10.0842-11.3141,20.9064-11.3141
		c8.3622,0,16.2332,3.6891,19.1844,11.3142c4.9191-6.887,11.5601-11.3141,21.3983-11.3141c14.5113,0,22.8735,6.3951,22.8735,23.1196
		v47.2238h-15.0032v-40.09c0-10.8222-0.738-18.4464-12.5441-18.4464c-10.0842,0-14.5113,6.887-14.5113,18.2005v40.0908h-15.0033
		v-43.7799c0-9.3462-2.9511-14.5113-12.0521-14.5113c-7.8703,0-15.0033,6.395-15.0033,17.7092v40.5828h-15.0032L524.1316,86.9583
		L524.1316,86.9583z"/>
	<polygon id="XMLID_56_" class="st1" points="650.7988,124.836 650.7988,124.836 650.7988,124.836 	"/>
	<path id="XMLID_3_" class="st1" d="M668.7532,84.7445c-20.1677,0-32.9577,16.7252-32.9577,36.1556
		c0,20.9064,12.0514,35.9097,33.4497,35.9097c15.0033,0,27.5474-8.1163,30.9905-23.1196h-14.2653
		c-2.7059,7.625-8.117,11.3141-16.7252,11.3141c-12.5434,0-18.4464-9.5922-18.4464-20.1684h-0.0001l0.0001,0v0l50.1749-0.2467
		C703.4329,104.1749,690.3976,84.7445,668.7532,84.7445z M650.7988,114.9978c0.4913-10.3302,7.3783-18.2005,17.9545-18.2005
		c10.0842,0,16.7252,8.6082,17.2172,18.2005L650.7988,114.9978z"/>
	<path id="XMLID_53_" class="st1" d="M712.5339,86.9584h14.2653v10.0842l0.246,0.246c4.4271-7.3783,12.2981-12.0521,21.1523-12.0521
		c14.7573,0,24.1035,7.8703,24.1035,23.1196v46.9779l-15.0033,0v-43.0419c-0.246-10.5762-4.4271-15.2493-13.2813-15.2493
		c-10.0842,0-16.4792,7.8703-16.4792,17.9545v40.3368l-15.0032,0L712.5339,86.9584L712.5339,86.9584z"/>
	<path id="XMLID_52_" class="st1" d="M781.4012,86.9584h11.3141V66.544l15.0032,0v20.4144l13.5273,0v11.3141h-13.5273v36.4017
		c0,6.1491,0.4919,9.3462,7.133,9.3462c2.2139,0,4.1812,0,6.395-0.492v11.5601c-3.4432,0.246-6.395,0.738-9.8382,0.738
		c-15.7413,0-18.6924-6.1491-18.9385-17.4632l0.0001-40.3368h-11.3141L781.4012,86.9584L781.4012,86.9584z"/>
	<path id="XMLID_2_" class="st1" d="M954.3082,44.1624L954.3082,44.1624c-4.6731-28.5306-31.9745-47.961-61.2431-43.5339
		c-29.2686,4.4271-49.1909,31.4826-44.5178,60.0132c3.6891,23.3656,22.6282,40.5828,45.2559,43.534
		c-16.9712-4.9191-30.7446-19.9224-33.9417-39.5988c-3.9351-26.0715,12.2981-50.421,36.6475-54.3562
		c12.7901-1.9679,24.5955,2.4592,33.6957,10.5762c-7.871-4.4271-16.9711-6.3951-26.3174-5.1651
		c-22.6283,3.4432-38.1228,25.0875-34.4337,48.2071c3.6891,23.3656,25.0874,39.3528,47.7157,35.9097
		c10.3301-1.4759,19.1844-6.887,25.3335-14.5113c-0.492,0.492-0.738,1.23-1.23,1.7219
		C951.6024,76.1362,957.0134,60.3957,954.3082,44.1624z M909.7898,95.0754L909.7898,95.0754c-4.6732,0.492-9.1003,0-13.2814-1.4759
		c8.6082,1.23,17.4632-2.9512,22.1364-11.3141c6.149-11.0682,2.7059-25.5795-8.1163-32.2205
		c-9.8382-6.1491-22.1364-3.6891-29.0226,5.4111c1.7219-1.4759,3.9351-2.7052,6.149-3.4432
		c8.6082-2.2139,17.2172,3.1972,19.4304,11.8061c2.2139,8.8543-2.9512,17.7085-11.5601,19.9224
		c-7.7017,1.9258-15.6258-2.2812-18.4973-9.6073c-0.1857-0.0382-0.1951-0.2529-0.1951-0.4769
		c0.0579,0.1633,0.1323,0.3165,0.1951,0.4769c0.0182,0.0038,0.0289,0.0151,0.0509,0.0151c-0.984-2.4592-1.476-4.9191-1.9679-7.6243
		c-2.2132-17.7085,9.8382-33.6958,26.8093-35.6637c16.9712-1.9679,32.2205,10.8222,34.4337,28.2847
		C938.5671,77.1202,926.761,93.1075,909.7898,95.0754z"/>
	<path id="XMLID_49_" class="st1" d="M877.0278,74.1539c-0.0628-0.1604-0.1371-0.3135-0.1951-0.4769
		C876.8328,73.901,876.8422,74.1157,877.0278,74.1539z"/>
</g>
</svg>
