<?xml version="1.0" encoding="utf-8"?>
<!-- Generator: Adobe Illustrator 19.0.0, SVG Export Plug-In . SVG Version: 6.00 Build 0)  -->
<svg version="1.1" id="Layer_3" xmlns="http://www.w3.org/2000/svg" xmlns:xlink="http://www.w3.org/1999/xlink" x="0px" y="0px"
	 width="128px" height="128px" viewBox="0 0 128 128" style="enable-background:new 0 0 128 128;" xml:space="preserve">
<style type="text/css">
	.st0{fill:#002E63;}
</style>
<path id="XMLID_119_" class="st0" d="M127.1734,54.5308L127.1734,54.5308c-5.5834-34.0879-38.2026-57.303-73.1723-52.0136
	S-4.7714,40.1321,0.812,74.22c4.4077,27.9168,27.0359,48.4877,54.071,52.0137c-20.2769-5.8773-36.7331-23.8029-40.553-47.312
	C9.6283,47.7719,29.0235,18.6795,58.1158,13.9778c15.2814-2.3513,29.3863,2.9382,40.2591,12.6363
	c-9.4041-5.2894-20.2769-7.6407-31.4436-6.1712c-27.0359,4.1138-45.5485,29.9741-41.1408,57.597
	c4.4077,27.9168,29.9741,47.0181,57.0099,42.9043c12.3423-1.7634,22.9212-8.2285,30.2681-17.3379
	c-0.5878,0.5878-0.8817,1.4695-1.4695,2.0573C123.9405,92.7327,130.4055,73.9261,127.1734,54.5308z M73.9835,115.3608h-0.0001
	c-5.5834,0.5878-10.8728,0-15.8683-1.7634c10.285,1.4695,20.8647-3.526,26.4481-13.518c7.3468-13.2241,3.233-30.5619-9.6972-38.4966
	c-11.7545-7.3468-26.4481-4.4077-34.6758,6.4651c2.0573-1.7634,4.7016-3.2321,7.3468-4.1138
	c10.285-2.6451,20.5709,3.82,23.2151,14.1058c2.6451,10.5789-3.5261,21.1578-13.8118,23.8029
	c-9.2019,2.3009-18.6695-2.7255-22.1003-11.4787c-0.2218-0.0457-0.233-0.3021-0.233-0.5697
	c0.0692,0.1952,0.1581,0.3781,0.233,0.5697c0.0218,0.0045,0.0346,0.0181,0.0608,0.0181c-1.1757-2.9382-1.7634-5.8773-2.3512-9.1094
	C29.9054,60.1151,44.3042,41.0138,64.581,38.6625s38.4965,12.9301,41.1408,33.794
	C108.3661,93.9083,94.2604,113.0096,73.9835,115.3608z"/>
</svg>
